<svg width="256" height="256" viewBox="0 0 256 256" fill="none" xmlns="http://www.w3.org/2000/svg">
<rect x="0" y="0" width="100%" height="100%" fill="none" />
<rect x="3" y="5" width="250" height="30" fill="#000000"/>
<rect x="3" y="221" width="250" height="30" fill="#000000"/>
<path d="M136.84 47.1289L137.795 47.2764L139.244 47.5L140.585 48.0967L141.539 48.5205L142.586 48.9863L143.514 49.6572L144.469 50.3477L145.145 50.835L145.738 51.4189L146.693 52.3584L147.116 52.7744L147.492 53.2344L148.447 54.4004L148.812 54.8477L149.13 55.3301L151.039 58.2383L151.281 58.6064L151.493 58.9932L153.402 62.4824L153.524 62.7041L153.635 62.9316L156.5 68.7871L156.547 68.8848L162.2 80.7373L164.876 85.9004L167.491 90.4863L170.033 94.4658L172.49 97.8545L174.883 100.733L177.188 103.136L179.436 105.153L181.648 106.855L183.837 108.293L186.037 109.523L188.222 110.559L191.321 111.771L194.458 112.749L197.668 113.547L201.882 114.356L207.099 115.085L213.355 115.683L220.681 116.134L223.484 116.259L234.474 116.743L234.025 126.915L233.995 127.823L234.225 138.931L223.227 139.157L216.603 139.293L206.361 139.656L199.035 140.108L192.772 140.709L187.564 141.438L183.353 142.249L180.142 143.05L177.005 144.031L173.906 145.246L171.73 146.282L169.524 147.52L167.334 148.962L165.12 150.671L162.873 152.692L160.56 155.11L158.183 157.979L155.716 161.388L153.17 165.381L150.562 169.963L147.868 175.169L144.122 182.973L140.318 190.959L140.239 191.125L140.154 191.289L138.245 194.977L138.097 195.262L137.933 195.538L136.023 198.75L135.808 199.112L135.564 199.457L134.609 200.815L134.364 201.164L134.093 201.493L133.138 202.648L132.753 203.114L132.318 203.536L131.363 204.463L130.756 205.052L130.065 205.542L129.11 206.219L128.16 206.892L127.091 207.352L126.137 207.762L124.779 208.345L123.316 208.549L122.361 208.683L120.757 208.906L119.155 208.658L118.2 208.511L116.756 208.287L115.419 207.693L114.465 207.27L113.416 206.804L112.486 206.132L111.531 205.441L110.854 204.952L110.26 204.367L109.305 203.428L108.884 203.013L108.509 202.556L107.554 201.39L107.188 200.941L106.87 200.458L104.961 197.55L104.719 197.182L104.507 196.795L102.598 193.306L102.454 193.045L102.326 192.776L95.666 178.875L92.9141 173.293L90.2441 168.291L87.6221 163.856L85.9756 161.331L84.3115 158.985L82.7412 156.961L80.3486 154.214L78.0557 151.939L75.8242 150.035L73.6182 148.425L71.4326 147.064L69.2188 145.893L67.0234 144.907L63.8936 143.751L60.7754 142.831L56.6191 141.883L52.4004 141.162L47.1416 140.509L40.8506 139.974L32.415 139.524L21.4307 138.939L21.9844 128.521L22.0039 127.954L21.7197 116.917L32.7158 116.633L45.9238 116.291L55.1729 115.811L61.459 115.273L66.7246 114.617L70.9385 113.896L75.085 112.946L78.2217 112.018L81.3408 110.861L83.5293 109.877L85.751 108.696L87.9355 107.332L90.1357 105.721L92.3701 103.81L94.6562 101.534L97.0566 98.7725L98.627 96.7441L100.28 94.4072L101.944 91.8516L104.562 87.416L107.235 82.3975L110.016 76.752L116.648 62.9141L116.78 62.6406L116.926 62.374L118.835 58.8975L119.052 58.5029L119.3 58.1279L121.21 55.2373L121.533 54.748L121.907 54.2949L122.862 53.1406L123.247 52.6748L123.681 52.2539L124.636 51.3271L125.244 50.7363L125.936 50.2461L126.891 49.5693L127.839 48.8965L128.907 48.4375L129.861 48.0273L131.222 47.4424L132.688 47.2383L133.643 47.1055L135.243 46.8818L136.84 47.1289ZM143.591 114.657L141.838 119.825L137.128 135.981L137.116 136.024L137.104 136.067L135.193 142.426L135.138 142.612L135.075 142.796L133.166 148.427L133.086 148.662L132.995 148.894L132.041 151.339L131.953 151.564L131.854 151.786L130.899 153.946L130.771 154.238L130.625 154.522L129.67 156.383L129.478 156.757L129.258 157.115L128.304 158.669L128.011 159.146L127.671 159.591L126.716 160.841L126.275 161.417L125.765 161.93L124.81 162.887L124.155 163.543L123.4 164.081L122.445 164.761L121.549 165.399L120.544 165.848L119.589 166.273L118.492 166.762L117.317 167.002L116.362 167.197L115.226 167.431L114.549 167.425L115.429 169.209L115.456 169.265L115.483 169.321L120.885 180.598L124.274 173.481L124.282 173.466L124.29 173.449L128.109 165.496L128.181 165.348L128.256 165.202L131.12 159.667L131.221 159.472L131.33 159.28L134.194 154.248L134.33 154.009L134.479 153.775L137.343 149.283L137.517 149.011L137.706 148.749L140.571 144.79L140.783 144.496L141.015 144.218L143.879 140.763L144.129 140.462L144.399 140.179L147.264 137.186L147.548 136.889L147.854 136.613L150.718 134.036L151.026 133.758L151.355 133.504L154.22 131.294L154.545 131.043L154.889 130.816L157.752 128.93L158.081 128.714L158.424 128.521L161.289 126.915L161.609 126.735L161.886 126.603L160.113 125.555L159.853 125.4L159.6 125.231L156.735 123.316L156.501 123.16L156.274 122.991L153.41 120.855L153.11 120.632L152.827 120.389L144.229 113.021L143.591 114.657ZM129.804 86.3672L129.778 86.4199L129.752 86.4717L126.889 92.2871L126.811 92.4443L126.729 92.5996L123.864 97.9756L123.751 98.1865L123.63 98.3936L120.766 103.247L120.643 103.455L120.511 103.657L118.601 106.592L118.483 106.771L118.359 106.947L116.45 109.644L116.314 109.836L116.171 110.021L114.262 112.488L114.07 112.735L113.866 112.971L111.002 116.267L110.74 116.567L110.457 116.849L107.593 119.699L107.299 119.991L106.984 120.261L104.12 122.71L103.804 122.98L103.468 123.227L100.604 125.324L100.276 125.563L99.9316 125.778L97.0674 127.567L96.7412 127.771L96.4004 127.952L94.1172 129.164L94.1523 129.187L97.0166 130.953L97.2705 131.11L97.5146 131.28L100.38 133.269L100.635 133.446L100.88 133.638L104.699 136.623L104.916 136.793L105.124 136.973L109.898 141.105L109.908 141.114H109.907L111.78 142.739L112.406 141.137L114.177 135.917L116.011 129.811L120.781 113.448L120.848 113.219L120.925 112.993L122.834 107.361L122.914 107.126L123.005 106.895L123.959 104.45L124.047 104.225L124.146 104.003L125.1 101.843L125.229 101.55L125.375 101.267L126.33 99.4062L126.522 99.0322L126.742 98.6738L127.696 97.1191L127.989 96.6426L128.329 96.1973L129.284 94.9473L129.726 94.3701L130.238 93.8564L131.193 92.8994L131.845 92.2451L132.597 91.71L133.552 91.0293L134.449 90.3896L135.456 89.9414L136.411 89.5156L137.508 89.0273L138.684 88.7861L139.638 88.5908L140.774 88.3584L141.463 88.3633L136.737 78.4541L135.15 75.2109L129.804 86.3672Z" fill="#000000"/>
</svg>
