<svg width="256" height="256" viewBox="0 0 256 256" fill="none" xmlns="http://www.w3.org/2000/svg">
<rect x="0" y="0" width="100%" height="100%" fill="none" />
<rect x="3" y="5" width="250" height="30" fill="#000000"/>
<rect x="3" y="221" width="250" height="30" fill="#000000"/>
<path d="M169 58C207.66 58 239 89.3401 239 128C239 166.66 207.66 198 169 198C153.465 198 139.113 192.938 127.5 184.375C115.887 192.938 101.535 198 86 198C47.3401 198 16 166.66 16 128C16 89.3401 47.3401 58 86 58C101.535 58 115.887 63.0614 127.5 71.624C139.113 63.0614 153.465 58 169 58ZM86 84C61.6995 84 42 103.699 42 128C42 152.301 61.6995 172 86 172C94.701 172 102.811 169.473 109.64 165.115C102.898 154.356 99 141.633 99 128C99 114.366 102.898 101.643 109.64 90.8838C102.812 86.5259 94.7008 84 86 84ZM169 84C160.299 84 152.188 86.5256 145.359 90.8838C152.101 101.643 156 114.366 156 128C156 141.634 152.101 154.356 145.359 165.115C152.188 169.474 160.299 172 169 172C193.301 172 213 152.301 213 128C213 103.699 193.301 84 169 84ZM127.5 113.353C125.883 117.935 125 122.864 125 128C125 133.136 125.883 138.064 127.5 142.646C129.117 138.064 130 133.136 130 128C130 122.864 129.117 117.935 127.5 113.353Z" fill="#000000"/>
</svg>
