<svg width="256" height="256" viewBox="0 0 256 256" fill="none" xmlns="http://www.w3.org/2000/svg">
<rect x="0" y="0" width="100%" height="100%" fill="none" />
<path d="M253 251H3V221H253V251ZM131.463 62.0908C141.349 62.0908 149.787 63.8596 156.775 67.3965C163.807 70.8908 169.155 75.8554 172.819 82.29C176.527 88.682 178.381 96.2031 178.381 104.854C178.381 113.547 176.506 121.026 172.756 127.29C169.006 133.512 163.572 138.285 156.456 141.608C156.066 141.792 155.671 141.968 155.271 142.142L183.047 193H152.493L127.696 146.594H107.493V193H79.8154V62.0908H131.463ZM107.493 124.35H126.285C131.569 124.35 135.959 123.625 139.453 122.176C142.947 120.727 145.546 118.554 147.251 115.656C148.998 112.759 149.872 109.157 149.872 104.854C149.872 100.507 148.998 96.8423 147.251 93.8594C145.547 90.8766 142.926 88.618 139.39 87.084C135.895 85.5073 131.484 84.7188 126.157 84.7188H107.493V124.35ZM253 35H3V5H253V35Z" fill="#000000"/>
</svg>
