<svg width="256" height="256" viewBox="0 0 256 256" fill="none" xmlns="http://www.w3.org/2000/svg">
<rect x="0" y="0" width="100%" height="100%" fill="none" />
<path d="M253 251H3V221H253V251ZM63.4717 193H36.2422V94.8184H63.4717V193ZM129.318 93.54C136.137 93.54 142.081 95.0317 147.152 98.0146C152.223 100.998 156.165 105.258 158.978 110.798C161.79 116.295 163.196 122.858 163.196 130.485V193H135.966V134.784C135.912 129.044 134.378 124.542 131.364 121.281C128.253 117.872 123.97 116.168 118.516 116.168C114.851 116.168 111.612 116.956 108.8 118.532C106.03 120.109 103.857 122.411 102.28 125.437C100.746 128.419 99.9577 132.02 99.915 136.238V193H72.6846V94.8184H98.6367V112.141H99.7871C101.96 106.43 105.604 101.914 110.718 98.5898C115.831 95.2234 122.031 93.54 129.318 93.54ZM210.346 55.9541C214.522 55.9541 218.336 56.2739 221.788 56.9131C225.282 57.5523 227.881 58.1283 229.586 58.6396L224.728 79.0938C223.662 78.7529 222.341 78.433 220.765 78.1348C219.231 77.8365 217.654 77.6875 216.035 77.6875C212.029 77.6875 209.238 78.625 207.661 80.5C206.084 82.3324 205.296 84.9105 205.296 88.2344V94.8184H224.855V115.272H205.296V193H178.13V115.272H164.259V94.8184H178.13V87.7227C178.13 80.6063 179.515 74.704 182.285 70.0166C185.098 65.3294 188.932 61.8134 193.79 59.4697C198.648 57.126 204.167 55.9541 210.346 55.9541ZM49.9209 54.6123C53.9692 54.6123 57.4213 55.9759 60.2764 58.7031C63.1739 61.3877 64.6221 64.6056 64.6221 68.3555C64.622 72.1478 63.1738 75.4076 60.2764 78.1348C57.4213 80.8194 53.9692 82.1621 49.9209 82.1621C45.8726 82.1621 42.3997 80.8194 39.502 78.1348C36.6469 75.4076 35.2188 72.1479 35.2188 68.3555C35.2188 64.6055 36.6468 61.3878 39.502 58.7031C42.3997 55.9759 45.8726 54.6123 49.9209 54.6123ZM253 35H3V5H253V35Z" fill="#000000"/>
</svg>
