<svg width="256" height="256" viewBox="0 0 256 256" fill="none" xmlns="http://www.w3.org/2000/svg">
<rect x="43" y="204" width="170" height="18" fill="#000000"/>
<rect x="43" y="35" width="170" height="18" fill="#000000"/>
<rect x="88" y="51" width="80" height="49" fill="#000000"/>
<path d="M128 212L128 107" stroke="#000000" stroke-width="18"/>
<path d="M134.397 113.364C137.912 109.849 137.912 104.151 134.397 100.636C130.882 97.1213 125.184 97.1213 121.669 100.636L134.397 113.364ZM75 160.033L81.364 166.397L134.397 113.364L128.033 107L121.669 100.636L68.636 153.669L75 160.033Z" fill="#000000"/>
<path d="M134.364 100.636C130.849 97.1213 125.151 97.1213 121.636 100.636C118.121 104.151 118.121 109.849 121.636 113.364L134.364 100.636ZM181.033 160.033L187.397 153.669L134.364 100.636L128 107L121.636 113.364L174.669 166.397L181.033 160.033Z" fill="#000000"/>
</svg>
