<svg width="185" height="185" viewBox="0 0 185 185" fill="none" xmlns="http://www.w3.org/2000/svg">
<path d="M68.9896 160.141H39.3125C35.3376 160.141 31.935 158.726 29.1047 155.895C26.2745 153.065 24.8594 149.662 24.8594 145.688V92.5C24.8594 83.1215 26.6419 74.3372 30.207 66.1471C33.7721 57.957 38.6059 50.8108 44.7083 44.7083C50.8108 38.6059 57.957 33.7721 66.1471 30.207C74.3372 26.6419 83.1215 24.8594 92.5 24.8594C101.878 24.8594 110.663 26.6419 118.853 30.207C127.043 33.7721 134.189 38.6059 140.292 44.7083C146.394 50.8108 151.228 57.957 154.793 66.1471C158.358 74.3372 160.141 83.1215 160.141 92.5V145.688C160.141 149.662 158.726 153.065 155.895 155.895C153.065 158.726 149.662 160.141 145.688 160.141H116.01V100.786H145.688V92.5C145.688 77.7257 140.517 65.1675 130.174 54.8255C119.832 44.4835 107.274 39.3125 92.5 39.3125C77.7257 39.3125 65.1675 44.4835 54.8255 54.8255C44.4835 65.1675 39.3125 77.7257 39.3125 92.5V100.786H68.9896V160.141ZM54.5365 115.24H39.3125V145.688H54.5365V115.24ZM130.464 115.24V145.688H145.688V115.24H130.464Z" fill="#000000"/>
</svg>
