<svg width="256" height="256" viewBox="0 0 256 256" fill="none" xmlns="http://www.w3.org/2000/svg">
<rect x="0" y="0" width="100%" height="100%" fill="none" />
<path d="M169 53C210.421 53 244 86.5786 244 128C244 169.421 210.421 203 169 203C153.653 203 139.385 198.389 127.5 190.479C115.615 198.389 101.347 203 86 203C44.5786 203 11 169.421 11 128C11 86.5786 44.5786 53 86 53C101.346 53 115.616 57.61 127.5 65.5195C139.384 57.61 153.654 53 169 53ZM169 83C161.961 83 155.301 84.6187 149.368 87.5H105.631C99.698 84.6189 93.0384 83 86 83C61.1472 83 41 103.147 41 128C41 152.853 61.1472 173 86 173C93.0378 173 99.6965 171.381 105.629 168.5H149.37C155.303 171.381 161.962 173 169 173C193.853 173 214 152.853 214 128C214 103.147 193.853 83 169 83Z" fill="#000000"/>
<path d="M88.0691 91.2727H107.032L127.061 140.136H127.913L147.941 91.2727H166.904V164H151.99V116.663H151.386L132.565 163.645H122.409L103.588 116.486H102.984V164H88.0691V91.2727Z" fill="#000000"/>
</svg>
