<svg width="256" height="256" viewBox="0 0 256 256" fill="none" xmlns="http://www.w3.org/2000/svg">
<rect x="43" y="204" width="170" height="17" fill="#000000"/>
<rect x="43" y="35" width="170" height="17" fill="#000000"/>
<path d="M164.5 187V165.077H142.6V150.462H164.5V128.538H179.1V150.462H201V165.077H179.1V187H164.5ZM120.7 165.077H91.5C81.4017 165.077 72.7938 161.514 65.6763 154.389C58.5588 147.264 55 138.647 55 128.538C55 118.429 58.5588 109.812 65.6763 102.687C72.7938 95.5625 81.4017 92 91.5 92H120.7V106.615H91.5C85.4167 106.615 80.2458 108.747 75.9875 113.01C71.7292 117.272 69.6 122.449 69.6 128.538C69.6 134.628 71.7292 139.804 75.9875 144.067C80.2458 148.33 85.4167 150.462 91.5 150.462H120.7V165.077ZM98.8 135.846V121.231H157.2V135.846H98.8ZM201 128.538H186.4C186.4 122.449 184.271 117.272 180.013 113.01C175.754 108.747 170.583 106.615 164.5 106.615H135.3V92H164.5C174.598 92 183.206 95.5625 190.324 102.687C197.441 109.812 201 118.429 201 128.538Z" fill="#000000"/>
</svg>
