<svg width="256" height="256" viewBox="0 0 256 256" fill="none" xmlns="http://www.w3.org/2000/svg">
<rect x="0" y="0" width="100%" height="100%" fill="none" />
<path d="M128 53C137.849 53 147.602 54.9399 156.701 58.709C165.801 62.4781 174.069 68.0024 181.033 74.9668C184.575 78.5089 187.744 82.3885 190.5 86.543V65C198.708 65 206.835 66.6169 214.418 69.7578C222.001 72.8987 228.891 77.5021 234.694 83.3057C240.498 89.1092 245.101 95.9993 248.242 103.582C251.383 111.165 253 119.292 253 127.5C253 135.708 251.383 143.835 248.242 151.418C245.101 159.001 240.498 165.891 234.694 171.694C228.891 177.498 222.001 182.101 214.418 185.242C206.835 188.383 198.708 190 190.5 190V169.456C187.744 173.611 184.575 177.491 181.033 181.033C174.069 187.998 165.801 193.522 156.701 197.291C147.602 201.06 137.849 203 128 203C118.151 203 108.398 201.06 99.2988 197.291C90.1994 193.522 81.9312 187.998 74.9668 181.033C71.4245 177.491 68.2557 173.611 65.5 169.456V190C48.924 190 33.0267 183.415 21.3057 171.694C9.58464 159.973 3 144.076 3 127.5C3 110.924 9.58464 95.0267 21.3057 83.3057C33.0267 71.5846 48.924 65 65.5 65V86.543C68.2556 82.3885 71.4247 78.5089 74.9668 74.9668C81.9312 68.0024 90.1994 62.4781 99.2988 58.709C108.398 54.9399 118.151 53 128 53ZM128 83C122.091 83 116.239 84.1643 110.779 86.4258C110.336 86.6094 109.897 86.8026 109.461 87H65.5V169H109.461C109.897 169.197 110.336 169.391 110.779 169.574C116.239 171.836 122.091 173 128 173C133.909 173 139.761 171.836 145.221 169.574C145.664 169.391 146.103 169.197 146.539 169H190.5V87H146.539C146.103 86.8026 145.664 86.6094 145.221 86.4258C139.761 84.1643 133.909 83 128 83ZM60.459 95.3945C53.7065 96.4546 47.4123 99.6248 42.5186 104.519C36.4236 110.613 33 118.88 33 127.5C33 136.12 36.4236 144.387 42.5186 150.481C47.2885 155.251 53.3888 158.384 59.9473 159.521C59.5161 158.591 59.1023 157.651 58.709 156.701C54.9399 147.602 53 137.849 53 128C53 118.151 54.9399 108.398 58.709 99.2988C59.2555 97.9793 59.8396 96.6776 60.459 95.3945ZM195.54 95.3945C196.16 96.6777 196.744 97.9792 197.291 99.2988C201.06 108.398 203 118.151 203 128C203 137.849 201.06 147.602 197.291 156.701C196.898 157.651 196.483 158.59 196.052 159.521C198.408 159.113 200.718 158.446 202.938 157.526C206.88 155.893 210.463 153.499 213.48 150.481C216.498 147.464 218.893 143.881 220.526 139.938C222.16 135.994 223 131.768 223 127.5C223 123.232 222.16 119.006 220.526 115.062C218.893 111.119 216.499 107.536 213.481 104.519C210.464 101.501 206.881 99.1069 202.938 97.4736C200.557 96.4877 198.074 95.7922 195.54 95.3945Z" fill="#000000"/>
<path d="M88.0691 91.2727H107.032L127.061 140.136H127.913L147.941 91.2727H166.904V164H151.99V116.663H151.386L132.565 163.645H122.409L103.588 116.486H102.984V164H88.0691V91.2727Z" fill="#000000"/>
</svg>
